<svg width="186" height="43" viewBox="0 0 186 43" fill="none" xmlns="http://www.w3.org/2000/svg">
<path d="M185.5 21.5C185.5 22.8279 184.92 24.164 183.736 25.5016C182.549 26.8423 180.776 28.1595 178.452 29.43C173.803 31.9708 167.044 34.2748 158.648 36.2156C141.865 40.0956 118.655 42.5 93 42.5C67.3451 42.5 44.1347 40.0956 27.3517 36.2156C18.9562 34.2748 12.1967 31.9708 7.54821 29.43C5.22373 28.1595 3.45057 26.8423 2.26383 25.5016C1.07986 24.164 0.5 22.8279 0.5 21.5C0.5 20.1721 1.07986 18.836 2.26383 17.4984C3.45057 16.1577 5.22373 14.8405 7.54821 13.57C12.1967 11.0292 18.9562 8.72525 27.3517 6.78436C44.1347 2.90442 67.3451 0.5 93 0.5C118.655 0.5 141.865 2.90442 158.648 6.78436C167.044 8.72525 173.803 11.0292 178.452 13.57C180.776 14.8405 182.549 16.1577 183.736 17.4984C184.92 18.836 185.5 20.1721 185.5 21.5Z" stroke="#D3B890"/>
</svg>
