<svg width="91" height="30" viewBox="0 0 91 30" fill="none" xmlns="http://www.w3.org/2000/svg">
<path d="M63.115 18.9167C62.1285 17.8257 61.7765 16.6693 61.7765 15.9466C61.7671 15.5951 61.8201 15.2451 61.9324 14.9175C62.0447 14.59 62.2139 14.2916 62.4299 14.0404C62.6459 13.7891 62.9042 13.5902 63.1893 13.4554C63.4744 13.3207 63.7805 13.2529 64.0892 13.2562C65.7552 13.2562 66.5248 14.9488 67.3393 16.7486C68.1539 18.5484 69.1036 20.6373 71.1502 20.945C71.3785 20.9747 71.6081 20.9903 71.8379 20.9916C71.1377 21.1842 70.4213 21.2905 69.7012 21.3087C66.1441 21.4253 64.1547 20.0824 63.115 18.9307V18.9167Z" fill="#D3B890"/>
<path d="M79.1525 16.3291C79.3804 16.5745 79.6821 16.7113 79.9958 16.7114H80.0326C80.3583 16.7114 80.6706 16.564 80.9009 16.3017C81.1312 16.0394 81.2606 15.6836 81.2606 15.3126C81.2599 15.1386 81.2287 14.9666 81.169 14.8065C81.1092 14.6463 81.0221 14.5014 80.9127 14.3801C80.7948 14.2529 80.656 14.1537 80.5042 14.088C80.3524 14.0224 80.1908 13.9917 80.0285 13.9977C79.7028 13.9977 79.3905 14.1451 79.1602 14.4074C78.9299 14.6697 78.8005 15.0255 78.8005 15.3965C78.801 15.5705 78.832 15.7427 78.8918 15.9028C78.9515 16.0629 79.0388 16.2079 79.1484 16.3291H79.1525ZM29.877 11.326C35.7878 9.41425 41.3711 7.59582 46.3158 7.44661C55.0677 7.13081 63.817 8.15646 72.329 10.496C71.7569 11.057 71.2921 11.7458 70.9632 12.5198C70.6344 13.2938 70.4486 14.1364 70.4174 14.9955C70.4174 16.6275 71.1296 18.1055 72.464 19.2666L72.8447 18.6931C71.6617 17.6719 71.0355 16.3943 71.0355 14.9909C71.0355 13.4662 71.7886 11.8762 73.0617 10.7105C81.0805 13.0419 86.3404 16.012 87.8549 17.4621H80.7366L79.656 19.0661C78.6082 19.0678 77.5648 18.911 76.5533 18.5998C77.1665 17.8253 77.6172 16.9021 77.8713 15.9001L77.9286 15.6716L73.9745 12.1559L73.778 12.3564C73.3527 12.7461 73.0262 13.2577 72.832 13.8387C72.6377 14.4197 72.5828 15.0491 72.6728 15.6623C72.9061 17.0145 73.9008 18.1708 75.399 18.9262C75.3621 18.9635 75.3212 19.0054 75.2516 19.0661L75.1574 19.1593L75.1165 19.1966C74.216 19.9706 72.5336 20.4136 71.1992 20.2271C69.48 19.9846 68.6941 18.2547 67.8672 16.427C67.0035 14.5199 66.1071 12.5476 64.0563 12.5476C63.6659 12.5475 63.2793 12.6361 62.9192 12.8081C62.5591 12.9801 62.2327 13.2322 61.9591 13.5495C61.6855 13.8668 61.4701 14.243 61.3256 14.6562C61.1811 15.0694 61.1103 15.5113 61.1173 15.956C61.1173 17.0658 61.7027 18.3993 62.6441 19.4437C63.7248 20.6374 65.7387 22.0315 69.2426 22.0315L69.6888 22.0315C71.792 22.0188 73.8342 21.2248 75.5054 19.7701L75.5381 19.7375L75.6773 19.6069C75.8247 19.4624 75.9434 19.3412 76.0539 19.2199C77.066 19.5712 78.1153 19.7642 79.173 19.7934H90.4092L90.3846 21.6585C83.3809 21.9196 77.5889 22.7403 71.9892 23.5236C66.8316 24.2557 61.9605 24.9224 56.6351 25.1182C47.6544 25.4167 38.5672 23.6821 29.7788 22.0129C22.5132 20.6141 15.6445 19.3272 9.86886 19.4577V15.9047C16.5819 15.6296 23.3318 13.4475 29.8689 11.3306L29.877 11.326Z" fill="#D3B890"/>
<path d="M80.0318 14.7205H80.0523C80.2043 14.7178 80.3513 14.7831 80.4616 14.9024C80.5116 14.9572 80.5512 15.0232 80.578 15.0962C80.6047 15.1691 80.6181 15.2476 80.6171 15.3267C80.6119 15.5036 80.5467 15.6713 80.4353 15.7947C80.3239 15.9182 80.1749 15.9877 80.0195 15.9888C79.944 15.9917 79.8688 15.9771 79.7984 15.9458C79.7281 15.9145 79.664 15.8673 79.6102 15.8069C79.5601 15.7521 79.5205 15.6861 79.4938 15.6132C79.467 15.5402 79.4537 15.4617 79.4546 15.3826C79.4597 15.2096 79.522 15.0453 79.629 14.9224C79.7361 14.7996 79.88 14.7275 80.0318 14.7205Z" fill="#D3B890"/>
<path d="M73.3192 15.5364C73.2523 15.0959 73.2832 14.6433 73.409 14.2198C73.5348 13.7964 73.7516 13.4155 74.0396 13.1118L77.2324 15.9514C76.9601 16.8584 76.5141 17.685 75.9266 18.3713C74.4735 17.7419 73.528 16.7161 73.3192 15.5364Z" fill="#D3B890"/>
<path d="M37.8299 8.16439L39.6391 5.73511L41.4238 7.32511C40.249 7.55358 39.0497 7.84266 37.8258 8.16439H37.8299Z" fill="#D3B890"/>
<path d="M42.2751 7.16671L40.0484 5.18973L41.0635 3.82356L44.4814 6.85899C43.7583 6.93359 43.0229 7.03616 42.2751 7.16671Z" fill="#D3B890"/>
<path d="M48.882 6.68169L42.8975 1.3662L43.9167 3.05176e-05L51.4648 6.705C50.6175 6.705 49.7538 6.67703 48.882 6.705V6.68169Z" fill="#D3B890"/>
<path d="M46.3118 6.72821C46.013 6.72821 45.7141 6.7562 45.4153 6.77485L41.4735 3.27315L42.4927 1.91165L47.8877 6.69092C47.3678 6.69092 46.848 6.6909 46.324 6.72821H46.3118Z" fill="#D3B890"/>
<path d="M17.9323 14.0444L19.6801 11.713L21.3584 13.2051C20.2205 13.5159 19.0784 13.8004 17.9323 14.0584V14.0444Z" fill="#D3B890"/>
<path d="M24.8315 12.184L21.516 9.24186L22.5352 7.87569L26.7227 11.6059C26.0923 11.7924 25.4619 11.9929 24.8315 12.184Z" fill="#D3B890"/>
<path d="M22.1412 12.9765L20.0945 11.1534L21.1138 9.78723L24.0732 12.417C23.4224 12.6082 22.7838 12.7947 22.1412 12.9765Z" fill="#D3B890"/>
<path d="M9.25977 17.3779V18.2405C7.88441 18.5016 5.63717 18.786 2.48531 19.0331C2.54371 18.2574 2.54371 17.4775 2.48531 16.7018C5.64536 16.9116 7.8844 17.1681 9.25157 17.4012L9.25977 17.3779Z" fill="#D3B890"/>
<path d="M2.41981 19.7607C5.83364 19.4949 7.94581 19.2245 9.25977 18.9727V19.5882C7.71658 20.4601 5.12959 21.346 1.98591 22.0268C2.18095 21.2832 2.32735 20.5242 2.4239 19.756L2.41981 19.7607Z" fill="#D3B890"/>
<path d="M9.63725 15.1866C7.32043 13.923 3.39903 13.149 1.76579 12.8552C1.45072 11.8536 1.05756 10.8861 0.591004 9.96436C3.39903 10.4959 9.40802 12.4263 11.5488 15.056C10.9103 15.1213 10.2758 15.1866 9.63725 15.1866Z" fill="#D3B890"/>
<path d="M9.62311 20.1755C10.2003 20.1755 10.7938 20.1755 11.3955 20.1755C9.14827 22.8519 3.3685 25.0527 0.601412 25.7475C1.06059 24.8088 1.44946 23.8277 1.76392 22.8146C3.46674 22.4556 7.32266 21.5323 9.62311 20.1848V20.1755Z" fill="#D3B890"/>
<path d="M9.25977 15.7835V16.66C7.76161 16.3958 5.48298 16.1611 2.4239 15.956C2.33216 15.1665 2.18431 14.3868 1.98182 13.6246C4.71616 14.1235 7.55285 14.8929 9.25977 15.7835Z" fill="#D3B890"/>
<path d="M18.9526 20.8332C21.691 21.2249 24.5645 21.7425 27.5117 22.302C26.7381 24.1671 24.6751 27.431 19.6689 27.6314C20.3325 26.0843 20.4325 24.3011 19.9473 22.6703C19.7438 21.978 19.4019 21.3491 18.9485 20.8332H18.9526Z" fill="#D3B890"/>
<path d="M51.4357 25.7849C52.4917 25.8362 53.5519 25.8595 54.608 25.8595C55.2998 25.8595 55.9874 25.8595 56.6751 25.8269L57.2236 25.8036C56.8639 27.0161 56.1821 28.0713 55.2728 28.8231C54.3635 29.5749 53.2714 29.9862 52.1479 30C52.2962 29.3319 52.3237 28.6365 52.2287 27.956C52.1337 27.2755 51.9182 26.6241 51.5953 26.0414C51.5462 25.9388 51.4889 25.8641 51.4357 25.7849Z" fill="#D3B890"/>
</svg>
