<svg width="32" height="26" viewBox="0 0 32 26" fill="none" xmlns="http://www.w3.org/2000/svg">
<path id="&#226;&#128;&#156;" d="M0.71875 25.3535V18.7129C0.71875 16.6621 1.07682 14.5462 1.79297 12.3652C2.54167 10.1517 3.56706 8.05208 4.86914 6.06641C6.20378 4.04818 7.71745 2.32292 9.41016 0.890625L15.2695 4.55273C13.9674 6.60352 12.8932 8.76823 12.0469 11.0469C11.2331 13.293 10.8262 15.832 10.8262 18.6641V25.3535H0.71875ZM16.7344 25.3535V18.7129C16.7344 16.6621 17.0924 14.5462 17.8086 12.3652C18.5573 10.1517 19.5827 8.05208 20.8848 6.06641C22.2194 4.04818 23.7331 2.32292 25.4258 0.890625L31.2852 4.55273C29.9831 6.60352 28.9089 8.76823 28.0625 11.0469C27.2487 13.293 26.8418 15.832 26.8418 18.6641V25.3535H16.7344Z" fill="#004F3C"/>
</svg>
